<svg width="197" height="69" viewBox="0 0 197 69" fill="none" xmlns="http://www.w3.org/2000/svg">
<path d="M6.163 68.385C4.21233 68.385 2.82633 67.3583 2.005 65.305C1.235 63.2517 0.85 59.9663 0.85 55.449C0.85 48.7757 1.79967 42.436 3.699 36.43C4.161 34.9413 4.90533 33.8633 5.932 33.196C7.01 32.4773 8.49867 32.118 10.398 32.118C11.4247 32.118 12.1433 32.2463 12.554 32.503C12.9647 32.7597 13.17 33.2473 13.17 33.966C13.17 34.7873 12.785 36.6353 12.015 39.51C11.5017 41.5633 11.091 43.36 10.783 44.9C10.475 46.3887 10.2183 48.2623 10.013 50.521C11.399 46.517 13.0417 43.129 14.941 40.357C16.8917 37.585 18.868 35.5317 20.87 34.197C22.9233 32.811 24.8483 32.118 26.645 32.118C28.4417 32.118 29.6993 32.5287 30.418 33.35C31.188 34.1713 31.573 35.429 31.573 37.123C31.573 38.7657 31.0853 41.743 30.11 46.055C29.6993 47.903 29.417 49.289 29.263 50.213C31.8297 43.899 34.6787 39.3047 37.81 36.43C40.9413 33.5553 43.8673 32.118 46.588 32.118C49.9247 32.118 51.593 33.7863 51.593 37.123C51.593 39.125 51.0283 42.744 49.899 47.98C48.9237 52.446 48.436 55.3977 48.436 56.835C48.436 58.8883 49.1803 59.915 50.669 59.915C51.6957 59.915 52.902 59.299 54.288 58.067C55.7253 56.7837 57.6247 54.7303 59.986 51.907C60.602 51.1883 61.295 50.829 62.065 50.829C62.7323 50.829 63.2457 51.137 63.605 51.753C64.0157 52.369 64.221 53.216 64.221 54.294C64.221 56.3473 63.7333 57.9387 62.758 59.068C60.5507 61.7887 58.1637 64.0217 55.597 65.767C53.0817 67.5123 50.207 68.385 46.973 68.385C44.355 68.385 42.3787 67.6407 41.044 66.152C39.7093 64.612 39.042 62.4047 39.042 59.53C39.042 58.0927 39.4013 55.526 40.12 51.83C40.7873 48.596 41.121 46.363 41.121 45.131C41.121 44.3097 40.8387 43.899 40.274 43.899C39.6067 43.899 38.657 44.7717 37.425 46.517C36.193 48.211 34.961 50.4697 33.729 53.293C32.497 56.1163 31.496 59.0937 30.726 62.225C30.1613 64.689 29.494 66.3317 28.724 67.153C28.0053 67.9743 26.8247 68.385 25.182 68.385C23.488 68.385 22.2047 67.5893 21.332 65.998C20.5107 64.3553 20.1 62.379 20.1 60.069C20.1 58.1183 20.3567 55.295 20.87 51.599C21.2807 48.3137 21.486 46.1577 21.486 45.131C21.486 44.3097 21.2037 43.899 20.639 43.899C19.869 43.899 18.8937 44.823 17.713 46.671C16.5323 48.519 15.3773 50.8803 14.248 53.755C13.17 56.6297 12.2973 59.453 11.63 62.225C11.0653 64.6377 10.398 66.2803 9.628 67.153C8.90933 67.9743 7.75433 68.385 6.163 68.385ZM67.4658 68.385C64.2832 68.385 61.7422 67.23 59.8428 64.92C57.9435 62.61 56.9938 59.5813 56.9938 55.834C56.9938 51.7273 57.9435 47.8517 59.8428 44.207C61.7422 40.511 64.2575 37.5593 67.3888 35.352C70.5715 33.0933 73.9338 31.964 77.4758 31.964C78.6052 31.964 79.3495 32.195 79.7088 32.657C80.1195 33.0677 80.4532 33.8377 80.7098 34.967C81.7878 34.7617 82.9172 34.659 84.0978 34.659C86.6132 34.659 87.8708 35.5573 87.8708 37.354C87.8708 38.432 87.4858 40.9987 86.7158 45.054C85.5352 50.9573 84.9448 55.064 84.9448 57.374C84.9448 58.144 85.1245 58.76 85.4838 59.222C85.8945 59.684 86.4078 59.915 87.0238 59.915C87.9992 59.915 89.1798 59.299 90.5658 58.067C91.9518 56.7837 93.8255 54.7303 96.1868 51.907C96.8028 51.1883 97.4958 50.829 98.2658 50.829C98.9332 50.829 99.4465 51.137 99.8058 51.753C100.216 52.369 100.422 53.216 100.422 54.294C100.422 56.3473 99.9342 57.9387 98.9588 59.068C96.8542 61.686 94.6212 63.8933 92.2598 65.69C89.8985 67.4867 87.6142 68.385 85.4068 68.385C83.7128 68.385 82.1472 67.8203 80.7098 66.691C79.3238 65.5103 78.2715 63.919 77.5528 61.917C74.8835 66.229 71.5212 68.385 67.4658 68.385ZM70.2378 60.608C71.3672 60.608 72.4452 59.9407 73.4718 58.606C74.4985 57.2713 75.2428 55.5003 75.7048 53.293L78.5538 39.125C76.3978 39.1763 74.3958 39.9977 72.5478 41.589C70.7512 43.129 69.3138 45.1823 68.2358 47.749C67.1578 50.3157 66.6188 53.0363 66.6188 55.911C66.6188 57.5023 66.9268 58.683 67.5428 59.453C68.2102 60.223 69.1085 60.608 70.2378 60.608ZM104.251 27.036C102.095 27.036 100.478 26.5483 99.3998 25.573C98.3218 24.5463 97.7828 23.1347 97.7828 21.338C97.7828 19.5413 98.4758 18.0527 99.8618 16.872C101.299 15.64 103.07 15.024 105.175 15.024C107.074 15.024 108.614 15.486 109.795 16.41C110.975 17.334 111.566 18.643 111.566 20.337C111.566 22.3903 110.898 24.033 109.564 25.265C108.229 26.4457 106.458 27.036 104.251 27.036ZM103.635 68.385C100.298 68.385 97.8598 67.2043 96.3198 64.843C94.8311 62.4817 94.0868 59.3503 94.0868 55.449C94.0868 53.139 94.3691 50.1873 94.9338 46.594C95.5498 42.9493 96.3198 39.5613 97.2438 36.43C97.7058 34.7873 98.3218 33.658 99.0918 33.042C99.8618 32.426 101.094 32.118 102.788 32.118C105.406 32.118 106.715 32.9907 106.715 34.736C106.715 36.0193 106.227 38.9967 105.252 43.668C104.02 49.3147 103.404 53.139 103.404 55.141C103.404 56.681 103.609 57.8617 104.02 58.683C104.43 59.5043 105.123 59.915 106.099 59.915C107.023 59.915 108.178 59.2733 109.564 57.99C110.95 56.7067 112.798 54.679 115.108 51.907C115.724 51.1883 116.417 50.829 117.187 50.829C117.854 50.829 118.367 51.137 118.727 51.753C119.137 52.369 119.343 53.216 119.343 54.294C119.343 56.3473 118.855 57.9387 117.88 59.068C112.798 65.2793 108.049 68.385 103.635 68.385ZM147.455 50.829C148.122 50.829 148.636 51.137 148.995 51.753C149.406 52.369 149.611 53.216 149.611 54.294C149.611 56.3473 149.123 57.9387 148.148 59.068C145.941 61.7887 143.528 64.0217 140.91 65.767C138.292 67.5123 135.289 68.385 131.901 68.385C121.429 68.385 116.193 61.0187 116.193 46.286C116.193 44.0273 116.27 41.743 116.424 39.433H113.421C111.881 39.433 110.829 39.1507 110.264 38.586C109.751 38.0213 109.494 37.123 109.494 35.891C109.494 33.0163 110.649 31.579 112.959 31.579H117.348C118.221 25.9323 119.555 20.7733 121.352 16.102C123.149 11.4307 125.305 7.709 127.82 4.93699C130.387 2.165 133.133 0.778998 136.059 0.778998C138.215 0.778998 139.909 1.72866 141.141 3.628C142.373 5.52733 142.989 7.91433 142.989 10.789C142.989 18.7457 139.652 25.6757 132.979 31.579H141.603C142.424 31.579 143.015 31.7587 143.374 32.118C143.733 32.4773 143.913 33.1447 143.913 34.12C143.913 37.662 141.013 39.433 135.212 39.433H125.818C125.715 41.9997 125.664 44.0017 125.664 45.439C125.664 50.7777 126.28 54.525 127.512 56.681C128.795 58.837 130.797 59.915 133.518 59.915C135.725 59.915 137.676 59.2477 139.37 57.913C141.064 56.5783 143.066 54.5763 145.376 51.907C145.992 51.1883 146.685 50.829 147.455 50.829ZM133.98 8.171C133.21 8.171 132.337 9.14633 131.362 11.097C130.438 12.9963 129.54 15.6657 128.667 19.105C127.846 22.493 127.153 26.266 126.588 30.424C129.617 27.806 131.875 24.88 133.364 21.646C134.904 18.3607 135.674 15.3833 135.674 12.714C135.674 9.68533 135.109 8.171 133.98 8.171ZM148.809 68.385C146.858 68.385 145.472 67.3583 144.651 65.305C143.881 63.2517 143.496 59.9663 143.496 55.449C143.496 48.7757 144.445 42.436 146.345 36.43C146.807 34.9413 147.551 33.8633 148.578 33.196C149.656 32.4773 151.144 32.118 153.044 32.118C154.07 32.118 154.789 32.2463 155.2 32.503C155.61 32.7597 155.816 33.2473 155.816 33.966C155.816 34.7873 155.431 36.6353 154.661 39.51C154.147 41.5633 153.737 43.36 153.429 44.9C153.121 46.44 152.864 48.3393 152.659 50.598C154.353 46.1833 156.252 42.59 158.357 39.818C160.461 37.046 162.515 35.0697 164.517 33.889C166.57 32.7083 168.444 32.118 170.138 32.118C173.474 32.118 175.143 33.7863 175.143 37.123C175.143 37.7903 174.912 39.4073 174.45 41.974C174.039 44.0273 173.834 45.3107 173.834 45.824C173.834 47.6207 174.475 48.519 175.759 48.519C177.196 48.519 179.044 47.3897 181.303 45.131C181.97 44.4637 182.663 44.13 183.382 44.13C184.049 44.13 184.562 44.438 184.922 45.054C185.332 45.6187 185.538 46.3887 185.538 47.364C185.538 49.2633 185.024 50.752 183.998 51.83C182.56 53.3187 180.866 54.602 178.916 55.68C177.016 56.7067 174.989 57.22 172.833 57.22C170.112 57.22 168.033 56.527 166.596 55.141C165.21 53.755 164.517 51.8813 164.517 49.52C164.517 48.75 164.594 47.98 164.748 47.21C164.85 46.1833 164.902 45.4903 164.902 45.131C164.902 44.3097 164.619 43.899 164.055 43.899C163.285 43.899 162.258 44.7717 160.975 46.517C159.743 48.211 158.511 50.4697 157.279 53.293C156.047 56.1163 155.046 59.0937 154.276 62.225C153.711 64.6377 153.044 66.2803 152.274 67.153C151.555 67.9743 150.4 68.385 148.809 68.385ZM189.009 27.036C186.853 27.036 185.236 26.5483 184.158 25.573C183.08 24.5463 182.541 23.1347 182.541 21.338C182.541 19.5413 183.234 18.0527 184.62 16.872C186.057 15.64 187.828 15.024 189.933 15.024C191.832 15.024 193.372 15.486 194.553 16.41C195.733 17.334 196.324 18.643 196.324 20.337C196.324 22.3903 195.656 24.033 194.322 25.265C192.987 26.4457 191.216 27.036 189.009 27.036ZM181.617 68.385C179.974 68.385 178.845 68.0513 178.229 67.384C177.613 66.7167 177.305 65.6643 177.305 64.227C177.305 63.8163 177.356 63.0977 177.459 62.071C178.28 52.677 179.64 44.13 181.54 36.43C181.95 34.8387 182.618 33.735 183.542 33.119C184.517 32.4517 186.057 32.118 188.162 32.118C190.369 32.118 191.473 33.0163 191.473 34.813C191.473 35.0697 191.421 35.5573 191.319 36.276C189.009 47.2613 187.623 56.4757 187.161 63.919C187.058 65.5617 186.57 66.7167 185.698 67.384C184.825 68.0513 183.465 68.385 181.617 68.385Z" fill="#FF00BF"/>
</svg>
